<?xml version="1.0" standalone="no"?>
<!DOCTYPE svg PUBLIC "-//W3C//DTD SVG 20010904//EN"
 "http://www.w3.org/TR/2001/REC-SVG-20010904/DTD/svg10.dtd">
<svg version="1.0" xmlns="http://www.w3.org/2000/svg"
 width="16.000000pt" height="16.000000pt" viewBox="0 0 16.000000 16.000000"
 preserveAspectRatio="xMidYMid meet">
<metadata>
Created by potrace 1.11, written by Peter Selinger 2001-2013
</metadata>
<g transform="translate(0.000000,16.000000) scale(0.002286,-0.002286)"
fill="#000000" stroke="none">
<path d="M3457 6439 c-94 -15 -184 -75 -235 -158 -41 -66 -55 -114 -54 -190 1
-134 75 -252 195 -310 79 -39 146 -46 232 -26 75 17 103 32 163 89 172 162
129 453 -82 560 -30 15 -67 29 -83 31 -73 10 -91 11 -136 4z"/>
<path d="M3145 5362 c-41 -130 -108 -328 -130 -382 -7 -19 -28 -73 -45 -120
-17 -47 -35 -94 -39 -105 -5 -11 -23 -56 -41 -100 -18 -44 -39 -94 -46 -112
-8 -17 -14 -33 -14 -36 0 -3 -13 -34 -29 -69 -16 -35 -39 -85 -51 -113 -12
-27 -50 -108 -85 -180 -34 -71 -65 -137 -69 -145 -3 -8 -29 -55 -57 -105 -27
-49 -53 -98 -56 -107 -8 -27 -15 -23 -58 33 -117 153 -349 353 -540 464 -183
106 -454 208 -645 241 -14 3 -32 7 -40 9 -8 2 -37 7 -65 10 -27 4 -58 9 -67
11 -13 4 -18 -1 -19 -18 0 -13 -2 -30 -3 -38 -2 -8 -6 -39 -10 -69 -26 -204
-189 -461 -342 -542 -24 -13 -44 -27 -44 -32 0 -4 9 -26 19 -50 149 -325 399
-1072 457 -1360 2 -10 5 -26 8 -35 3 -9 7 -28 10 -42 2 -14 11 -60 20 -102 9
-42 18 -94 21 -115 9 -65 17 -117 21 -138 26 -141 26 -532 -1 -654 -2 -9 -13
-50 -24 -91 -24 -92 -22 -171 7 -226 61 -119 286 -235 627 -324 116 -30 331
-73 428 -86 15 -1 62 -8 105 -13 42 -6 102 -13 132 -16 30 -3 71 -8 90 -10 19
-3 73 -7 120 -10 47 -3 105 -7 130 -10 226 -23 1061 -24 1390 0 137 9 237 17
250 20 8 2 49 6 90 10 41 3 87 8 101 11 15 2 47 6 70 9 370 45 763 155 960
271 93 54 139 98 167 158 28 59 28 114 -2 234 -14 53 -28 120 -32 147 -14 107
-7 476 11 570 2 11 7 43 11 70 11 88 12 93 18 122 4 15 8 39 11 53 21 115 51
240 97 415 37 140 152 506 183 585 8 19 37 98 66 174 28 77 77 203 109 280
l58 141 -33 22 c-19 13 -37 23 -41 23 -10 0 -94 70 -132 110 -76 80 -155 220
-186 330 -23 83 -30 122 -35 212 -1 10 -7 15 -13 13 -7 -2 -24 -6 -38 -9 -283
-52 -457 -109 -667 -217 -104 -53 -256 -148 -300 -187 -10 -10 -39 -34 -64
-54 -68 -55 -196 -184 -252 -255 -27 -35 -53 -61 -57 -58 -26 16 -274 530
-377 780 -25 61 -51 124 -58 140 -34 76 -133 351 -201 558 -42 125 -79 226
-82 224 -135 -70 -283 -93 -432 -70 -80 13 -104 20 -191 57 l-36 15 -38 -117z"/>
<path d="M299 4839 c-114 -17 -217 -96 -265 -202 -24 -52 -28 -75 -28 -147 0
-72 4 -94 28 -142 88 -184 301 -257 480 -166 54 27 126 103 156 163 36 72 38
197 6 277 -62 152 -217 241 -377 217z"/>
<path d="M6572 4834 c-111 -29 -195 -96 -241 -194 -29 -63 -39 -191 -18 -251
61 -174 230 -274 404 -239 243 49 360 336 220 540 -83 120 -230 178 -365 144z"/>
</g>
</svg>
